<?xml version="1.0" encoding="UTF-8" standalone="no"?>
<!DOCTYPE svg PUBLIC "-//W3C//DTD SVG 1.1//EN" "http://www.w3.org/Graphics/SVG/1.1/DTD/svg11.dtd">
<svg width="324.00" height="501.00" viewBox="0.00 0.00 324.00 501.00" xmlns="http://www.w3.org/2000/svg" xmlns:xlink="http://www.w3.org/1999/xlink">
<g stroke-linecap="round" transform="translate(-546.00, -384.00)" id="white-line01">
<path d="M578.34,396.92 C578.43,398.42 578.52,399.10 579.37,403.46 C581.54,414.10 591.36,453.73 593.51,463.77 C596.12,477.81 601.33,510.27 602.58,521.83 C603.61,533.18 605.24,567.05 605.83,582.78 C606.00,599.46 606.00,631.61 605.83,647.08 C605.40,659.97 603.22,697.75 602.93,708.08 C602.88,723.16 605.22,759.09 606.45,770.44 C607.30,777.23 610.29,794.90 611.13,798.76 C612.49,805.04 616.39,818.59 618.56,824.58 C620.94,831.10 625.18,840.06 629.51,847.96 C633.42,854.68 641.98,865.76 646.56,871.58 C648.88,874.43 651.47,877.39 652.01,878.01" fill="none" stroke="rgb(255, 255, 255)" stroke-width="10.00" stroke-opacity="1.00" stroke-linejoin="round"/>
<path d="M562.09,552.62 C563.57,554.82 569.06,562.58 572.40,568.02 C578.22,577.80 593.68,606.13 601.70,622.60 C610.13,640.32 622.67,664.51 629.11,674.67 C634.11,682.20 642.03,693.08 646.85,698.90 C652.61,705.66 662.44,715.91 667.78,720.87 C679.71,731.52 699.71,746.76 715.56,757.86 C727.87,765.97 752.64,781.44 765.85,788.65 C775.69,793.80 809.35,809.53 819.26,813.15 C829.59,816.71 857.44,825.36 863.84,827.33 C864.56,827.55 865.28,827.78 866.00,828.00" fill="none" stroke="rgb(255, 255, 255)" stroke-width="10.00" stroke-opacity="1.00" stroke-linejoin="round"/>
</g>
</svg>
