<?xml version="1.0" encoding="UTF-8" standalone="no"?>
<!DOCTYPE svg PUBLIC "-//W3C//DTD SVG 1.1//EN" "http://www.w3.org/Graphics/SVG/1.1/DTD/svg11.dtd">
<svg width="110.00" height="113.00" viewBox="0.00 0.00 110.00 113.00" xmlns="http://www.w3.org/2000/svg" xmlns:xlink="http://www.w3.org/1999/xlink">
<g stroke-linecap="round" transform="translate(-400.00, -406.00)" id="rubu-01">
<path d="M460.00,431.22 C460.69,431.62 461.26,431.90 461.70,432.06 C466.80,433.87 473.73,433.35 474.76,432.53 C475.00,431.94 473.74,430.35 471.82,429.07 C471.21,428.68 467.80,427.49 467.09,427.42 C464.86,427.25 462.44,428.09 461.83,429.17 C461.41,430.02 463.96,431.61 467.03,432.10 C470.06,432.57 474.70,432.76 475.78,432.44 C473.65,430.48 472.24,429.58 470.54,429.28 C468.84,428.97 467.91,428.94 466.93,429.07 C466.77,430.36 467.04,431.29 468.11,431.63 C468.46,431.74 469.39,431.95 470.89,432.25" fill="none" stroke="rgb(74, 71, 64)" stroke-width="8.00" stroke-opacity="1.00" stroke-linejoin="round"/>
<path d="M467.30,428.98 C467.56,429.13 467.79,429.24 467.98,429.32 C468.62,429.59 469.16,429.78 469.59,429.88 C469.86,429.95 470.29,430.00 470.89,430.04" fill="none" stroke="rgb(74, 71, 64)" stroke-width="8.00" stroke-opacity="1.00" stroke-linejoin="round"/>
<path d="M470.39,429.91 C470.41,429.52 470.40,429.16 470.36,428.82 C469.48,420.36 466.30,418.65 465.41,418.51 C464.50,418.82 463.90,420.11 464.17,421.93 C464.74,425.58 466.68,427.52 467.72,427.94 C468.35,427.77 469.06,427.06 469.19,426.14 C469.46,423.84 466.22,419.51 464.91,419.42 C464.04,420.26 463.85,421.45 464.53,423.29 C465.08,424.76 466.78,426.90 467.85,427.49 C468.53,427.85 469.77,427.47 470.02,427.06 C470.23,426.62 470.40,425.28 470.18,424.63 C469.70,423.25 467.98,421.10 466.67,420.31 C465.89,419.86 464.14,419.76 463.69,420.00 C462.86,420.53 463.18,423.66 465.08,425.76 C465.62,426.34 467.44,427.10 468.20,427.23 C469.34,427.36 470.95,424.90 470.46,423.36 C469.47,420.43 466.31,417.93 465.20,417.91 C464.54,417.93 463.64,418.49 463.43,419.12 C462.95,420.79 464.94,425.89 466.64,427.03 C467.72,427.72 469.22,427.95 469.73,427.51 C470.25,427.00 470.65,425.69 470.64,424.53 C470.60,423.44 469.65,421.19 468.60,419.53 C467.96,418.57 466.26,417.24 465.30,416.79 C464.71,416.54 463.44,416.72 463.09,417.04 C462.76,417.40 462.34,419.04 462.55,419.92 C463.49,423.51 466.65,427.30 467.88,427.63 C468.58,427.77 469.37,427.50 469.82,426.95 C470.63,425.83 470.13,420.84 468.66,418.90 C468.15,418.27 467.03,417.71 466.52,417.79 C465.49,418.03 464.28,421.60 465.28,423.87 C465.93,425.35 467.38,426.50 467.87,426.31 C468.63,425.43 468.33,421.75 466.92,420.03 C465.92,418.82 464.31,417.98 463.79,418.14 C461.14,421.03 465.37,422.98 466.55,423.29 C466.55,423.29 467.50,422.47 467.50,422.47 C467.50,422.47 467.25,420.90 467.25,420.90 C467.25,420.90 466.60,422.82 466.60,422.82 C467.54,422.60 467.78,422.18 467.11,421.05 C465.19,417.83 463.79,417.32 463.25,417.44 C462.64,418.04 462.24,419.28 462.41,420.65 C462.59,421.91 464.16,424.67 465.42,426.03 C466.20,426.84 468.26,427.46 469.42,427.46 C470.15,427.42 471.37,425.94 471.48,425.03 C471.61,423.20 467.10,417.19 465.42,416.16 C464.60,415.67 463.53,415.55 462.96,415.71 C462.13,416.58 462.23,419.61 463.48,422.30 C464.86,425.17 467.29,427.71 468.82,428.03 C470.08,428.24 472.12,426.18 471.99,424.91 C471.68,422.31 467.47,416.46 465.61,414.78 C464.59,413.87 463.43,413.36 462.34,413.15 C461.72,413.99 461.72,415.27 462.51,417.16 C463.40,419.26 466.53,424.52 468.78,425.85 C468.78,425.85 470.36,425.50 470.36,425.50 C471.00,423.84 471.16,422.20 470.52,420.65 C468.72,416.38 465.47,415.09 464.40,415.19 C464.40,415.19 463.25,416.58 463.25,416.58 C463.65,420.42 468.00,425.64 469.10,426.88 C466.61,423.98 463.53,419.13 463.23,418.14 C463.23,418.14 461.93,413.37 461.51,411.83" fill="none" stroke="rgb(255, 255, 255)" stroke-width="7.00" stroke-opacity="1.00" stroke-linejoin="round"/>
<path d="M461.36,414.47 C461.60,415.10 461.75,415.53 461.83,415.78 C461.90,416.02 462.00,416.40 462.12,416.93 C462.12,416.93 461.28,414.59 461.28,414.59" fill="none" stroke="rgb(255, 190, 10)" stroke-width="2.00" stroke-opacity="1.00" stroke-linejoin="round"/>
<path d="M489.83,476.96 C490.58,477.00 491.12,476.98 491.43,476.89 C491.75,476.80 492.28,476.52 493.04,476.06 C492.84,475.05 490.99,474.16 488.85,474.37 C488.32,474.42 487.56,474.67 486.58,475.12 C486.58,475.12 486.84,476.93 486.84,476.93 C488.76,477.80 489.92,478.07 491.33,477.86 C494.48,477.33 496.35,475.18 496.21,474.29 C494.82,473.61 492.90,473.54 490.65,474.18 C489.57,474.49 489.07,475.04 488.82,475.72 C490.19,477.25 493.76,477.34 494.46,476.93 C494.72,476.77 495.12,476.35 495.67,475.67" fill="none" stroke="rgb(74, 71, 64)" stroke-width="8.00" stroke-opacity="1.00" stroke-linejoin="round"/>
<path d="M494.16,473.35 C494.16,473.35 491.33,473.86 491.33,473.86" fill="none" stroke="rgb(74, 71, 64)" stroke-width="8.00" stroke-opacity="1.00" stroke-linejoin="round"/>
<path d="M489.60,476.96 C488.57,477.12 487.87,477.18 487.51,477.15 C486.31,477.04 485.22,476.04 484.67,474.90 C485.82,472.47 488.79,471.04 489.27,470.80 C489.55,470.65 490.13,470.28 491.00,469.67" fill="none" stroke="rgb(74, 71, 64)" stroke-width="8.00" stroke-opacity="1.00" stroke-linejoin="round"/>
<path d="M489.23,479.07 C488.00,478.80 487.16,478.60 486.69,478.47 C485.35,478.08 483.40,477.25 482.17,476.63 C482.17,476.63 482.43,475.20 482.43,475.20 C485.12,473.67 490.27,471.85 492.70,471.62 C494.41,471.47 498.15,472.40 499.13,472.53 C499.46,472.57 499.86,472.51 500.33,472.33" fill="none" stroke="rgb(74, 71, 64)" stroke-width="8.00" stroke-opacity="1.00" stroke-linejoin="round"/>
<path d="M496.40,480.27 C494.41,480.55 491.85,480.60 489.68,480.27 C487.74,479.97 484.97,479.02 484.04,478.36 C483.03,477.61 482.73,476.47 482.88,474.90 C484.06,473.82 485.42,473.26 485.90,473.09 C486.21,472.99 486.79,472.73 487.67,472.33" fill="none" stroke="rgb(74, 71, 64)" stroke-width="8.00" stroke-opacity="1.00" stroke-linejoin="round"/>
<path d="M485.19,472.90 C485.30,473.58 485.50,474.05 485.79,474.29 C487.09,475.33 490.25,475.32 492.44,474.30 C493.58,473.75 494.98,472.70 495.59,472.12 C494.97,471.41 493.91,470.87 492.51,470.84 C490.92,470.82 488.44,471.21 487.93,471.59 C487.29,472.09 487.04,472.82 487.08,473.60 C488.42,474.87 492.65,474.39 493.41,473.21 C492.92,471.80 489.59,471.78 488.74,472.02 C488.74,472.02 492.41,470.37 492.41,470.37 C491.18,469.54 489.47,470.23 488.58,470.99 C488.58,470.99 489.03,472.13 489.03,472.13 C492.28,472.42 493.40,471.24 493.75,470.56 C493.75,470.56 490.80,471.02 490.80,471.02 C490.80,471.02 492.28,471.95 492.28,471.95 C492.28,471.95 493.73,470.71 493.73,470.71 C493.73,470.71 492.43,469.97 492.43,469.97 C492.43,469.97 489.86,471.39 489.86,471.39 C489.86,471.39 490.05,472.59 490.05,472.59 C492.13,472.74 492.88,471.38 492.99,470.49 C492.99,470.49 492.21,469.74 492.21,469.74 C492.21,469.74 490.29,470.53 490.29,470.53 C490.29,470.53 491.33,471.72 491.33,471.72 C491.33,471.72 494.83,469.76 494.83,469.76 C494.83,469.76 494.23,468.52 494.23,468.52 C491.95,467.96 490.86,469.32 490.35,470.52 C490.35,470.52 491.86,471.34 491.86,471.34 C493.67,470.57 494.78,469.89 495.12,469.19 C495.50,468.41 495.48,467.51 495.21,466.88 C494.52,466.52 493.66,466.39 492.91,466.74 C490.65,467.84 490.42,469.93 490.72,471.42 C491.44,471.83 492.34,471.97 493.09,471.54 C495.33,470.20 495.55,468.37 495.46,466.70 C493.96,466.31 492.59,466.71 491.44,468.07 C490.79,468.82 490.38,469.97 490.16,471.04 C490.16,471.04 491.13,472.54 491.13,472.54 C492.87,471.66 493.89,470.86 494.26,469.85 C494.61,468.84 494.80,467.19 494.56,466.66 C494.15,465.84 493.03,465.22 492.02,465.30 C491.15,465.41 489.24,466.84 488.46,467.97 C487.70,469.10 487.73,470.67 488.24,472.26 C490.06,473.05 491.97,472.80 493.94,471.33 C494.80,470.66 496.19,468.68 496.38,467.92 C496.63,466.72 496.33,465.21 495.75,464.87 C495.05,464.54 493.60,464.35 492.91,464.70 C491.75,465.32 490.36,466.74 489.88,467.76 C489.41,468.79 489.41,469.73 489.77,471.44 C490.57,471.79 491.63,471.85 492.44,471.09 C494.97,468.69 496.13,464.12 495.69,463.28 C494.97,463.26 494.14,463.48 493.35,464.22 C491.76,465.76 490.14,468.67 489.71,470.78 C489.52,471.71 489.99,472.39 490.67,472.99 C491.76,472.94 492.88,472.66 493.68,471.88 C494.92,470.67 496.80,468.06 497.04,467.07 C497.31,465.82 497.26,464.04 496.91,463.45 C496.48,462.81 495.49,462.32 494.60,462.31 C493.70,462.35 491.85,463.68 490.91,464.97 C490.25,465.92 490.04,468.40 490.33,469.50 C490.56,470.21 491.75,470.90 492.49,470.89 C493.31,470.82 495.23,469.49 496.05,468.38 C496.75,467.40 497.15,464.92 496.92,463.79 C496.77,463.18 495.45,462.26 494.81,462.20 C494.08,462.17 492.08,462.95 491.42,463.68 C490.24,465.01 489.02,467.68 488.90,469.13 C488.86,469.80 489.55,471.81 489.87,472.17 C490.29,472.57 491.97,472.64 492.68,472.18 C493.91,471.34 495.61,469.36 495.95,468.32 C496.27,467.25 496.40,465.57 496.17,465.02 C495.86,464.35 494.92,463.87 494.02,463.93 C493.17,464.02 491.29,465.52 490.27,466.90 C488.82,468.93 489.24,471.76 489.65,472.40 C490.40,472.71 491.30,472.77 491.98,472.11 C493.02,471.06 494.76,468.32 494.95,467.29 C495.43,464.23 494.51,463.12 493.73,462.73 C492.61,462.98 491.55,463.47 490.83,464.30 C489.80,465.56 488.51,468.79 488.36,470.64 C488.24,472.23 489.30,473.35 490.96,474.12 C493.44,472.93 494.64,472.08 495.41,470.84 C496.81,468.50 497.07,464.73 495.82,464.00 C494.78,464.00 493.66,464.31 492.93,465.04 C490.85,467.17 490.53,470.48 490.77,471.98 C490.77,471.98 492.09,472.54 492.09,472.54 C493.92,471.01 495.57,469.01 495.86,467.44 C495.96,466.91 495.98,465.85 495.90,464.27 C494.51,463.44 492.90,463.50 491.45,464.85 C490.08,466.17 488.63,469.72 489.03,471.09 C489.17,471.55 489.69,472.21 490.59,473.07 C492.59,473.10 494.43,472.39 495.75,470.85 C496.89,469.51 499.15,464.28 498.77,462.76 C498.68,462.42 498.36,461.78 497.81,460.86 C496.11,460.87 494.58,461.49 493.23,463.06 C490.96,465.72 489.49,470.11 489.97,471.54 C492.09,471.37 492.29,469.76 492.17,468.78 C492.17,468.78 491.20,468.00 491.20,468.00 C490.12,468.10 488.89,468.65 488.26,469.71 C487.73,470.59 486.74,472.96 486.52,473.02 C486.93,471.00 487.66,469.39 489.21,467.23 C489.58,466.71 489.96,466.19 490.33,465.67" fill="none" stroke="rgb(255, 255, 255)" stroke-width="7.00" stroke-opacity="1.00" stroke-linejoin="round"/>
<path d="M494.90,461.70 C495.15,462.34 495.30,462.80 495.35,463.09 C495.41,463.38 495.45,463.95 495.47,464.79 C495.48,465.09 495.49,465.38 495.50,465.67" fill="none" stroke="rgb(255, 190, 10)" stroke-width="1.50" stroke-opacity="1.00" stroke-linejoin="round"/>
<path d="M418.12,505.62 C418.34,506.22 418.58,506.69 418.83,507.01 C420.74,509.53 422.08,509.83 422.71,509.80 C422.86,508.98 422.82,508.10 422.26,507.28 C421.12,505.58 419.03,503.82 416.59,502.35 C418.03,504.68 418.89,505.81 419.95,506.62 C422.13,508.24 425.84,508.48 426.37,508.07 C426.81,506.76 424.95,504.63 422.45,503.14 C420.41,501.96 416.95,501.04 415.84,501.86 C413.09,504.11 417.50,510.08 418.53,510.59 C418.97,510.80 420.02,511.16 421.67,511.67" fill="none" stroke="rgb(74, 71, 64)" stroke-width="8.00" stroke-opacity="1.00" stroke-linejoin="round"/>
<path d="M418.56,503.52 C417.70,503.68 417.40,505.49 417.67,506.71 C417.80,507.29 418.02,507.99 418.34,508.82 C418.45,509.10 418.66,509.58 418.98,510.28" fill="none" stroke="rgb(74, 71, 64)" stroke-width="8.00" stroke-opacity="1.00" stroke-linejoin="round"/>
<path d="M415.50,501.56 C415.50,501.56 413.63,501.97 413.63,501.97 C413.34,502.85 413.22,504.13 413.56,505.09 C414.45,507.52 418.11,510.69 419.09,510.92 C419.50,511.01 420.36,511.04 421.67,511.00" fill="none" stroke="rgb(74, 71, 64)" stroke-width="8.00" stroke-opacity="1.00" stroke-linejoin="round"/>
<path d="M416.32,500.43 C416.09,500.54 415.78,500.95 415.61,501.52 C415.30,502.78 418.66,506.39 419.80,506.82 C420.05,506.92 420.90,507.20 422.33,507.67" fill="none" stroke="rgb(74, 71, 64)" stroke-width="8.00" stroke-opacity="1.00" stroke-linejoin="round"/>
<path d="M424.99,504.42 C423.88,503.80 422.18,502.90 421.29,502.50 C418.62,501.32 416.36,500.97 413.86,500.77 C413.86,500.77 412.96,502.01 412.96,502.01 C413.65,503.93 417.11,507.11 418.90,508.10 C419.26,508.30 419.96,508.60 421.00,509.00" fill="none" stroke="rgb(74, 71, 64)" stroke-width="8.00" stroke-opacity="1.00" stroke-linejoin="round"/>
<path d="M416.55,501.48 C416.27,502.13 416.19,502.64 416.32,503.03 C416.61,503.83 419.24,507.05 419.95,507.65 C420.17,507.84 420.52,508.07 421.00,508.33" fill="none" stroke="rgb(74, 71, 64)" stroke-width="8.00" stroke-opacity="1.00" stroke-linejoin="round"/>
<path d="M418.12,494.87 C417.75,495.39 417.55,495.81 417.52,496.11 C417.27,498.50 420.17,502.65 420.74,502.82 C420.74,502.82 421.80,502.31 421.80,502.31 C422.32,500.53 422.41,499.24 422.02,497.45 C421.64,495.66 421.03,494.52 419.84,493.12 C419.84,493.12 418.88,493.58 418.88,493.58 C418.54,494.20 418.37,496.46 418.64,498.30 C418.83,499.58 419.66,500.41 420.74,500.93 C421.99,500.09 422.59,498.51 422.42,496.08 C422.32,494.79 421.22,492.81 420.35,492.00 C419.85,491.58 418.65,491.77 418.09,492.16 C417.49,492.64 416.88,494.84 416.76,496.77 C416.66,499.06 418.16,500.79 418.74,501.01 C419.99,500.88 420.73,495.28 420.07,491.98 C419.83,490.87 419.27,489.95 418.56,489.25 C417.42,490.43 416.70,492.67 417.13,494.82 C417.48,496.56 418.63,498.27 419.14,498.36 C419.74,497.94 420.29,497.21 420.38,496.17 C420.65,492.86 419.10,489.26 418.68,488.26 C418.68,488.26 417.53,488.35 417.53,488.35 C417.36,492.77 419.02,497.14 420.41,498.10 C421.10,497.95 421.72,497.52 421.90,496.67 C423.03,490.86 419.90,489.72 419.47,489.77 C418.43,491.22 418.81,493.92 419.73,496.39 C419.73,496.39 420.75,496.03 420.75,496.03 C420.81,491.13 419.10,488.04 418.17,487.39 C417.63,487.63 417.15,488.14 417.09,489.12 C416.91,493.02 418.43,497.05 419.43,497.55 C422.17,497.22 419.65,487.33 418.76,486.60 C417.87,488.68 417.60,490.17 417.89,492.18 C418.18,494.20 418.81,495.60 420.13,497.50 C420.99,497.39 421.14,491.09 420.39,489.32 C420.24,488.98 419.85,488.29 419.22,487.27 C418.06,488.69 417.59,489.80 417.69,491.32 C417.86,493.84 419.09,498.32 420.85,500.16 C421.53,500.25 422.15,499.99 422.66,499.28 C423.10,498.62 423.42,496.18 423.34,494.23 C423.16,491.00 420.47,488.36 419.67,488.39 C418.26,489.03 417.60,492.16 417.87,494.56 C418.21,497.27 420.14,500.81 421.30,500.84 C421.93,500.40 422.49,499.78 422.58,498.92 C423.21,492.22 419.57,489.52 418.49,489.42 C416.92,495.00 420.10,498.45 420.63,498.51 C421.63,497.81 422.04,492.76 421.45,489.97 C420.76,486.90 419.03,485.30 418.49,485.21 C417.38,485.60 416.81,488.22 417.12,490.97 C417.65,495.10 418.81,497.50 420.35,499.79 C420.35,499.79 421.51,499.57 421.51,499.57 C422.20,497.73 422.38,496.29 422.09,493.93 C421.57,489.94 419.00,486.97 418.51,487.02 C417.72,487.35 417.00,487.91 416.84,488.81 C415.86,494.95 419.19,499.70 419.53,499.82 C420.63,499.61 421.69,496.88 421.39,493.31 C421.15,490.81 419.52,486.40 418.32,485.71 C418.32,485.71 417.30,485.88 417.30,485.88 C416.09,486.96 416.26,494.48 417.36,497.01 C418.08,498.59 419.65,500.50 420.15,500.46 C420.85,500.32 421.52,499.81 421.76,499.06 C422.43,496.85 421.23,492.29 420.47,491.45 C419.50,491.99 419.27,493.39 419.79,496.55 C419.97,497.59 420.15,498.63 420.33,499.67" fill="none" stroke="rgb(255, 255, 255)" stroke-width="7.00" stroke-opacity="1.00" stroke-linejoin="round"/>
<path d="M416.85,485.54 C417.53,485.51 418.03,485.54 418.34,485.65 C418.98,485.87 419.50,486.36 420.12,486.63 C420.31,486.71 420.45,486.67 420.54,486.52" fill="none" stroke="rgb(255, 255, 255)" stroke-width="1.50" stroke-opacity="1.00" stroke-linejoin="round"/>
<path d="M417.74,484.86 C417.66,485.65 417.62,486.20 417.63,486.52 C417.64,486.86 417.70,487.39 417.82,488.12 C417.84,488.27 417.86,488.34 417.86,488.34" fill="none" stroke="rgb(255, 190, 10)" stroke-width="1.50" stroke-opacity="1.00" stroke-linejoin="round"/>
</g>
</svg>
