<?xml version="1.0" encoding="UTF-8" standalone="no"?>
<!DOCTYPE svg PUBLIC "-//W3C//DTD SVG 1.1//EN" "http://www.w3.org/Graphics/SVG/1.1/DTD/svg11.dtd">
<svg width="237.00" height="455.00" viewBox="0.00 0.00 237.00 455.00" xmlns="http://www.w3.org/2000/svg" xmlns:xlink="http://www.w3.org/1999/xlink">
<g stroke-linecap="round" transform="translate(-854.00, -180.00)" id="white-line02">
<path d="M865.28,180.86 C865.97,183.42 867.47,188.76 868.28,191.54 C870.66,199.63 876.52,219.17 877.99,223.41 C879.62,228.13 885.51,240.55 889.95,247.69 C894.32,254.67 898.96,260.21 906.06,267.59 C911.71,273.27 923.98,284.75 930.12,290.13 C949.78,306.76 964.43,320.06 973.32,329.72 C977.33,334.11 987.38,346.48 992.10,353.29 C995.85,358.73 1004.06,372.64 1006.57,377.57 C1009.20,382.76 1015.81,398.04 1018.48,405.25 C1021.04,412.49 1025.22,425.26 1027.99,434.84 C1030.04,442.42 1033.40,456.75 1034.76,463.64 C1037.10,476.92 1040.30,508.06 1040.89,522.74 C1041.29,543.52 1040.40,574.26 1039.78,581.14 C1039.07,588.90 1034.31,622.07 1033.33,628.77 C1033.22,629.51 1033.11,630.26 1033.00,631.00" fill="none" stroke="rgb(255, 255, 255)" stroke-width="10.00" stroke-opacity="1.00" stroke-linejoin="round"/>
<path d="M886.01,193.50 C886.40,196.34 887.46,200.28 889.03,204.43 C890.32,207.78 892.42,211.69 894.74,215.11 C898.93,221.22 909.83,231.45 913.30,233.95 C918.30,237.54 951.79,258.10 965.19,266.09 C977.92,273.96 1001.79,290.93 1012.16,299.71 C1017.49,304.48 1028.68,314.91 1033.80,320.17 C1040.61,327.46 1050.54,339.30 1053.23,342.83 C1056.73,347.42 1065.18,360.03 1068.88,366.80 C1071.67,371.93 1077.49,384.72 1079.00,389.00" fill="none" stroke="rgb(255, 255, 255)" stroke-width="10.00" stroke-opacity="1.00" stroke-linejoin="round"/>
</g>
</svg>
